<svg xmlns="http://www.w3.org/2000/svg" xmlns:xlink="http://www.w3.org/1999/xlink" xmlns:inkscape="http://www.inkscape.org/namespaces/inkscape" version="1.1" width="298" height="312" viewBox="0 0 298 312">
<defs>
<clipPath id="clip_0">
<path transform="matrix(1,0,0,-1,0,312)" d="M0 312H298V0H0Z"/>
</clipPath>
</defs>
<g inkscape:groupmode="layer" inkscape:label="Layer 1">
<g clip-path="url(#clip_0)">
<path transform="matrix(1,0,0,-1,238.3692,136.8579)" d="M0 0C-.591 .594-1.41 .959-2.314 .959-3.218 .959-4.038 .594-4.63 0-5.222-.592-5.588-1.41-5.588-2.316-5.588-3.22-5.222-4.038-4.63-4.631-4.038-5.223-3.218-5.589-2.314-5.589-1.41-5.589-.591-5.223 0-4.631 .593-4.038 .961-3.22 .961-2.316 .961-1.41 .593-.592 0 0M-2.314 1.929C-1.142 1.929-.081 1.456 .686 .686 1.456-.082 1.93-1.143 1.93-2.316 1.93-3.487 1.456-4.549 .686-5.317-.081-6.086-1.142-6.56-2.314-6.56-3.486-6.56-4.547-6.086-5.315-5.317-6.085-4.549-6.559-3.487-6.559-2.316-6.559-1.143-6.085-.082-5.315 .686-4.547 1.456-3.486 1.929-2.314 1.929" fill="#34629c"/>
<path transform="matrix(1,0,0,-1,235.3135,138.7539)" d="M0 0H.633C1.044 0 1.301 .017 1.403 .051 1.506 .086 1.585 .146 1.643 .231 1.7 .316 1.73 .422 1.73 .549 1.73 .692 1.692 .806 1.615 .895 1.54 .982 1.432 1.037 1.292 1.061 1.224 1.07 1.015 1.074 .669 1.074H0ZM-.856-2.447V1.792H.947C1.399 1.792 1.728 1.752 1.934 1.679 2.139 1.602 2.303 1.466 2.426 1.273 2.55 1.077 2.611 .855 2.611 .604 2.611 .286 2.517 .023 2.33-.184 2.144-.391 1.864-.522 1.491-.576 1.677-.685 1.83-.803 1.951-.932 2.07-1.061 2.234-1.29 2.437-1.62L2.957-2.447H1.933L1.314-1.524C1.093-1.194 .942-.986 .863-.902 .782-.815 .696-.757 .605-.724 .513-.693 .371-.678 .173-.678H0V-2.447Z" fill="#34629c"/>
<path transform="matrix(1,0,0,-1,159.6924,119.582508)" d="M0 0C-2.313-13.154-9.893-24.494-20.482-31.768-20.27-31.441-20.066-31.104-19.874-30.75-19.021-29.188-18.486-27.489-18.164-25.654-17.844-23.825-17.736-21.858-17.736-19.757L-17.773 21.866C-17.774 24.464-17.167 26.357-15.882 27.595-14.594 28.836-12.619 29.43-9.881 29.43H-9.756V29.556L-9.751 31.345V31.47H-9.876L-17.862 31.456H-26.074-26.201V31.331 24.797C-27.633 27.377-29.463 29.249-31.594 30.507-34.011 31.939-36.815 32.58-39.866 32.58-41.089 32.58-42.245 32.482-43.335 32.296-49.288 31.28-53.302 27.636-55.825 22.923-58.342 18.22-59.375 12.45-59.375 7.163-59.375 4.944-59.194 2.809-58.863 .872-57.856-5.021-55.663-9.779-52.376-13.034-49.196-16.185-44.997-17.926-39.866-17.926-36.488-17.926-33.947-17.43-31.792-16.186-29.733-14.999-28.032-13.134-26.304-10.374-26.315-11.126-26.315-12.108-26.317-13.225-26.32-18.13-26.326-25.684-27.217-28.311-28.027-30.696-29.477-32.353-31.228-33.453-33.363-34.794-35.949-35.31-38.379-35.31-40.713-35.31-43.296-34.496-45.234-32.82-46.846-31.424-48.012-29.431-48.215-26.809L-48.224-26.691H-48.341-57.926-58.057L-58.052-26.823C-57.871-31.309-55.72-34.284-52.817-36.24-49.118-38.729-44.199-39.555-40.592-39.747-43.039-40.124-45.548-40.324-48.101-40.324-54.742-40.324-61.07-38.996-66.841-36.596-97.343-36.759-82.101-73.461-36.912-65.549-9.086-77.25 28.012-77.361 49.674-65.01 66.343-55.506 73.396-37.892 56.639-29.128 59.544-12.295 41.29-.942 26.376-14.526 23.941-.712 10.813 4.017 0 0M-49.895 5.717C-49.895-.075-48.717-4.831-46.71-8.159-44.669-11.54-41.771-13.441-38.385-13.441-34.238-13.441-31.352-11.449-29.436-8.344-27.105-4.561-26.201 .875-26.201 6.399-26.201 11.124-26.497 16.591-28.167 20.869-29.827 25.119-32.848 28.199-38.298 28.199-42.217 28.199-44.877 25.789-46.646 22.372-49.166 17.516-49.895 10.634-49.895 5.717M-48.101 57.368C-28.712 57.368-11.96 46.069-4.072 29.698 10.062 29.074 23.694 22.094 28.936 6.744 54.021 17.168 71.749-7.085 67.311-23.934 89.995-38.141 75.914-64.172 46.496-73.284 23.878-80.288-8.828-84.451-41.295-75.39-100.344-85.24-127.409-32.941-90.226-16.22V-16.213C-94.496-8.96-96.948-.504-96.948 8.522-96.948 35.499-75.078 57.368-48.101 57.368" fill="#34629c" fill-rule="evenodd"/>
<path transform="matrix(1,0,0,-1,103.3672,232.6797)" d="M0 0C0 6.763-3.193 8.948-7.31 8.948-11.804 8.948-14.493 5.671-14.493 0-14.493-5.671-11.384-9.116-6.889-9.116-3.193-9.116 0-6.805 0 0M-8.023-17.937C-3.529-17.937-.042-15.795-.042-10.712V-8.275C-.042-7.309 .126-6.553 .126-6.553H.042C-1.218-9.116-3.529-10.838-7.015-10.838-12.476-10.838-16.341-6.553-16.341 0-16.341 6.553-12.771 10.67-7.31 10.67-1.344 10.67 0 6.553 0 6.553H.084C.084 6.553-.042 6.847-.042 7.352V10.166H1.722V-10.712C1.722-17.139-2.898-19.66-7.897-19.66-10.208-19.66-12.434-19.071-14.493-18.021L-13.652-16.467C-13.652-16.467-11.048-17.937-8.023-17.937" fill="#34629c"/>
<path transform="matrix(1,0,0,-1,112.2686,214.1123)" d="M0 0H1.764V-24.616C1.764-27.557 3.276-27.893 4.243-27.893 4.579-27.893 4.873-27.851 4.873-27.851V-29.489C4.873-29.489 4.495-29.573 4.117-29.573 2.898-29.573 0-29.111 0-25.163Z" fill="#34629c"/>
<path transform="matrix(1,0,0,-1,131.4639,242.2993)" d="M0 0C4.999 0 9.031 4.075 9.031 9.41 9.031 14.619 4.999 18.567 0 18.567-4.999 18.567-9.032 14.619-9.032 9.41-9.032 4.075-4.999 0 0 0M0 20.29C6.007 20.29 10.88 15.542 10.88 9.41 10.88 3.15 6.007-1.722 0-1.722-6.007-1.722-10.88 3.15-10.88 9.41-10.88 15.542-6.007 20.29 0 20.29" fill="#34629c"/>
<path transform="matrix(1,0,0,-1,157.209,242.2993)" d="M0 0C4.117 0 7.478 3.402 7.478 9.284 7.478 14.955 4.453 18.567 .168 18.567-3.696 18.567-7.309 15.837-7.309 9.242-7.309 4.579-4.915 0 0 0M-9.031 28.187H-7.267V17.265C-7.267 16.299-7.435 15.542-7.435 15.542H-7.351C-7.351 15.542-5.545 20.29 .252 20.29 5.881 20.29 9.326 15.795 9.326 9.284 9.326 2.604 5.419-1.722-.084-1.722-5.377-1.722-7.351 3.024-7.351 3.024H-7.435C-7.435 3.024-7.267 2.269-7.267 1.176V-1.218H-9.031Z" fill="#34629c"/>
<path transform="matrix(1,0,0,-1,172.2017,222.5137)" d="M0 0H1.764V-12.687C1.764-16.341 2.226-19.786 6.931-19.786 12.182-19.786 15.542-15.165 15.542-10.25V0H17.307V-21.004H15.542V-17.307C15.542-16.341 15.71-15.585 15.71-15.585H15.626C14.913-17.559 12.014-21.508 6.931-21.508 1.764-21.508 0-18.651 0-13.316Z" fill="#34629c"/>
<path transform="matrix(1,0,0,-1,196.2251,239.6528)" d="M0 0C0 0 2.353-2.646 6.511-2.646 9.074-2.646 11.342-1.302 11.342 1.302 11.342 6.637-.21 5.125-.21 11.972-.21 15.711 2.94 17.643 6.511 17.643 10.796 17.643 12.729 15.375 12.729 15.375L11.678 13.946C11.678 13.946 9.956 15.921 6.385 15.921 3.991 15.921 1.638 14.829 1.638 12.098 1.638 6.637 13.19 8.275 13.19 1.302 13.19-2.059 10.334-4.369 6.469-4.369 1.386-4.369-1.134-1.344-1.134-1.344Z" fill="#34629c"/>
</g>
</g>
</svg>
