<svg xmlns="http://www.w3.org/2000/svg" xmlns:xlink="http://www.w3.org/1999/xlink" width="500" zoomAndPan="magnify" viewBox="0 0 375 374.999991" height="500" preserveAspectRatio="xMidYMid meet" version="1.2"><defs><clipPath id="1ce5aaf144"><path d="M 261.152344 155.792969 L 304.386719 155.792969 L 304.386719 199.03125 L 261.152344 199.03125 Z M 261.152344 155.792969 "/></clipPath><clipPath id="44de15bd9c"><path d="M 282.769531 155.792969 C 270.828125 155.792969 261.152344 165.472656 261.152344 177.414062 C 261.152344 189.351562 270.828125 199.03125 282.769531 199.03125 C 294.707031 199.03125 304.386719 189.351562 304.386719 177.414062 C 304.386719 165.472656 294.707031 155.792969 282.769531 155.792969 Z M 282.769531 155.792969 "/></clipPath><clipPath id="dabf00af83"><path d="M 274.421875 169.066406 L 291.113281 169.066406 L 291.113281 185.757812 L 274.421875 185.757812 Z M 274.421875 169.066406 "/></clipPath><clipPath id="c78e3b2725"><path d="M 282.769531 169.066406 C 278.15625 169.066406 274.421875 172.800781 274.421875 177.414062 C 274.421875 182.023438 278.15625 185.757812 282.769531 185.757812 C 287.378906 185.757812 291.113281 182.023438 291.113281 177.414062 C 291.113281 172.800781 287.378906 169.066406 282.769531 169.066406 Z M 282.769531 169.066406 "/></clipPath><clipPath id="736a45fb09"><path d="M 10.386719 265.34375 L 53.621094 265.34375 L 53.621094 308.578125 L 10.386719 308.578125 Z M 10.386719 265.34375 "/></clipPath><clipPath id="09bfb13778"><path d="M 32.003906 265.34375 C 20.066406 265.34375 10.386719 275.023438 10.386719 286.960938 C 10.386719 298.898438 20.066406 308.578125 32.003906 308.578125 C 43.945312 308.578125 53.621094 298.898438 53.621094 286.960938 C 53.621094 275.023438 43.945312 265.34375 32.003906 265.34375 Z M 32.003906 265.34375 "/></clipPath><clipPath id="3f35994eaa"><path d="M 321.777344 30.9375 L 365.011719 30.9375 L 365.011719 74.171875 L 321.777344 74.171875 Z M 321.777344 30.9375 "/></clipPath><clipPath id="bf0ec5af6a"><path d="M 343.394531 30.9375 C 331.453125 30.9375 321.777344 40.617188 321.777344 52.554688 C 321.777344 64.496094 331.453125 74.171875 343.394531 74.171875 C 355.332031 74.171875 365.011719 64.496094 365.011719 52.554688 C 365.011719 40.617188 355.332031 30.9375 343.394531 30.9375 Z M 343.394531 30.9375 "/></clipPath><clipPath id="e7c99b07f9"><path d="M 217.914062 81.332031 L 261.152344 81.332031 L 261.152344 124.570312 L 217.914062 124.570312 Z M 217.914062 81.332031 "/></clipPath><clipPath id="b709aeca77"><path d="M 239.53125 81.332031 C 227.59375 81.332031 217.914062 91.011719 217.914062 102.953125 C 217.914062 114.890625 227.59375 124.570312 239.53125 124.570312 C 251.472656 124.570312 261.152344 114.890625 261.152344 102.953125 C 261.152344 91.011719 251.472656 81.332031 239.53125 81.332031 Z M 239.53125 81.332031 "/></clipPath><clipPath id="363450300d"><path d="M 141.25 300.828125 L 184.484375 300.828125 L 184.484375 344.0625 L 141.25 344.0625 Z M 141.25 300.828125 "/></clipPath><clipPath id="3a90532776"><path d="M 162.867188 300.828125 C 150.925781 300.828125 141.25 310.503906 141.25 322.445312 C 141.25 334.382812 150.925781 344.0625 162.867188 344.0625 C 174.804688 344.0625 184.484375 334.382812 184.484375 322.445312 C 184.484375 310.503906 174.804688 300.828125 162.867188 300.828125 Z M 162.867188 300.828125 "/></clipPath><clipPath id="f70afd32e3"><path d="M 65.589844 134.175781 L 108.824219 134.175781 L 108.824219 177.414062 L 65.589844 177.414062 Z M 65.589844 134.175781 "/></clipPath><clipPath id="84281e59f1"><path d="M 87.207031 134.175781 C 75.269531 134.175781 65.589844 143.855469 65.589844 155.792969 C 65.589844 167.734375 75.269531 177.414062 87.207031 177.414062 C 99.148438 177.414062 108.824219 167.734375 108.824219 155.792969 C 108.824219 143.855469 99.148438 134.175781 87.207031 134.175781 Z M 87.207031 134.175781 "/></clipPath><clipPath id="63d400739e"><path d="M 231.1875 94.605469 L 247.878906 94.605469 L 247.878906 111.296875 L 231.1875 111.296875 Z M 231.1875 94.605469 "/></clipPath><clipPath id="e85735e8f1"><path d="M 239.53125 94.605469 C 234.921875 94.605469 231.1875 98.339844 231.1875 102.953125 C 231.1875 107.5625 234.921875 111.296875 239.53125 111.296875 C 244.144531 111.296875 247.878906 107.5625 247.878906 102.953125 C 247.878906 98.339844 244.144531 94.605469 239.53125 94.605469 Z M 239.53125 94.605469 "/></clipPath><clipPath id="cdd364b293"><path d="M 335.046875 44.207031 L 351.742188 44.207031 L 351.742188 60.902344 L 335.046875 60.902344 Z M 335.046875 44.207031 "/></clipPath><clipPath id="59500c9b0f"><path d="M 343.394531 44.207031 C 338.785156 44.207031 335.046875 47.945312 335.046875 52.554688 C 335.046875 57.164062 338.785156 60.902344 343.394531 60.902344 C 348.003906 60.902344 351.742188 57.164062 351.742188 52.554688 C 351.742188 47.945312 348.003906 44.207031 343.394531 44.207031 Z M 343.394531 44.207031 "/></clipPath><clipPath id="dbcc531b02"><path d="M 78.859375 147.449219 L 95.554688 147.449219 L 95.554688 164.140625 L 78.859375 164.140625 Z M 78.859375 147.449219 "/></clipPath><clipPath id="c29065262b"><path d="M 87.207031 147.449219 C 82.597656 147.449219 78.859375 151.183594 78.859375 155.792969 C 78.859375 160.40625 82.597656 164.140625 87.207031 164.140625 C 91.820312 164.140625 95.554688 160.40625 95.554688 155.792969 C 95.554688 151.183594 91.820312 147.449219 87.207031 147.449219 Z M 87.207031 147.449219 "/></clipPath><clipPath id="c36b9a2eac"><path d="M 23.65625 278.613281 L 40.351562 278.613281 L 40.351562 295.308594 L 23.65625 295.308594 Z M 23.65625 278.613281 "/></clipPath><clipPath id="9b87054ede"><path d="M 32.003906 278.613281 C 27.394531 278.613281 23.65625 282.351562 23.65625 286.960938 C 23.65625 291.570312 27.394531 295.308594 32.003906 295.308594 C 36.613281 295.308594 40.351562 291.570312 40.351562 286.960938 C 40.351562 282.351562 36.613281 278.613281 32.003906 278.613281 Z M 32.003906 278.613281 "/></clipPath><clipPath id="209328ec4b"><path d="M 154.519531 314.097656 L 171.214844 314.097656 L 171.214844 330.792969 L 154.519531 330.792969 Z M 154.519531 314.097656 "/></clipPath><clipPath id="41915f2872"><path d="M 162.867188 314.097656 C 158.253906 314.097656 154.519531 317.832031 154.519531 322.445312 C 154.519531 327.054688 158.253906 330.792969 162.867188 330.792969 C 167.476562 330.792969 171.214844 327.054688 171.214844 322.445312 C 171.214844 317.832031 167.476562 314.097656 162.867188 314.097656 Z M 162.867188 314.097656 "/></clipPath></defs><g id="fd7371f3f9"><rect x="0" width="375" y="0" height="374.999991" style="fill:#ffffff;fill-opacity:1;stroke:none;"/><rect x="0" width="375" y="0" height="374.999991" style="fill:#ffffff;fill-opacity:1;stroke:none;"/><path style="fill:none;stroke-width:11;stroke-linecap:butt;stroke-linejoin:miter;stroke:#ffda3a;stroke-opacity:1;stroke-miterlimit:4;" d="M -0.000821126 5.498749 L 143.614513 5.500414 " transform="matrix(0.424951,-1.095923,1.095923,0.424951,20.149925,298.486622)"/><path style="fill:none;stroke-width:11;stroke-linecap:butt;stroke-linejoin:miter;stroke:#ffda3a;stroke-opacity:1;stroke-miterlimit:4;" d="M 0.000695281 5.500062 L 168.936003 5.500406 " transform="matrix(0.447844,1.086769,-1.086769,0.447844,93.180109,140.981388)"/><path style="fill:none;stroke-width:11;stroke-linecap:butt;stroke-linejoin:miter;stroke:#ffda3a;stroke-opacity:1;stroke-miterlimit:4;" d="M -0.00119997 5.500819 L 210.301563 5.500279 " transform="matrix(-0.370451,1.113776,-1.113776,-0.370451,245.665301,94.515683)"/><path style="fill:none;stroke-width:11;stroke-linecap:butt;stroke-linejoin:miter;stroke:#ffda3a;stroke-opacity:1;stroke-miterlimit:4;" d="M -0.00056071 5.499221 L 87.558493 5.499265 " transform="matrix(0.579877,1.022435,-1.022435,0.579877,237.615106,84.706233)"/><path style="fill:none;stroke-width:11;stroke-linecap:butt;stroke-linejoin:miter;stroke:#ffda3a;stroke-opacity:1;stroke-miterlimit:4;" d="M -0.000576885 5.500129 L 131.606223 5.499455 " transform="matrix(-0.50046,1.063564,-1.063564,-0.50046,354.470547,46.147742)"/><g clip-rule="nonzero" clip-path="url(#1ce5aaf144)"><g clip-rule="nonzero" clip-path="url(#44de15bd9c)"><path style=" stroke:none;fill-rule:nonzero;fill:#0097b2;fill-opacity:1;" d="M 261.152344 155.792969 L 304.386719 155.792969 L 304.386719 199.03125 L 261.152344 199.03125 Z M 261.152344 155.792969 "/></g></g><g clip-rule="nonzero" clip-path="url(#dabf00af83)"><g clip-rule="nonzero" clip-path="url(#c78e3b2725)"><path style=" stroke:none;fill-rule:nonzero;fill:#ffffff;fill-opacity:1;" d="M 274.421875 169.066406 L 291.113281 169.066406 L 291.113281 185.757812 L 274.421875 185.757812 Z M 274.421875 169.066406 "/></g></g><g style="fill:#0097b2;fill-opacity:1;"><g transform="translate(16.4666, 247.474759)"><path style="stroke:none" d="M 43.265625 0 L 43.265625 -16.140625 C 43.265625 -18.128906 43.335938 -20.175781 43.484375 -22.28125 C 43.640625 -24.382812 43.804688 -26.148438 43.984375 -27.578125 C 44.160156 -29.015625 44.269531 -29.925781 44.3125 -30.3125 L 44.046875 -30.3125 L 35.78125 0 L 24.53125 0 L 16.203125 -30.25 L 15.9375 -30.25 C 15.976562 -29.863281 16.097656 -28.960938 16.296875 -27.546875 C 16.492188 -26.140625 16.675781 -24.382812 16.84375 -22.28125 C 17.019531 -20.175781 17.109375 -18.128906 17.109375 -16.140625 L 17.109375 0 L 3.90625 0 L 3.90625 -44.765625 L 24.203125 -44.765625 L 30.96875 -18.9375 L 31.234375 -18.9375 L 37.9375 -44.765625 L 57.515625 -44.765625 L 57.515625 0 Z M 43.265625 0 "/></g></g><g style="fill:#0097b2;fill-opacity:1;"><g transform="translate(89.911706, 247.474759)"><path style="stroke:none" d="M 4.8125 -44.765625 L 43.53125 -44.765625 L 43.53125 -34.03125 L 19.1875 -34.03125 L 19.1875 -27.84375 L 40.015625 -27.84375 L 40.015625 -17.5625 L 19.1875 -17.5625 L 19.1875 -10.734375 L 43.984375 -10.734375 L 43.984375 0 L 4.8125 0 Z M 4.8125 -44.765625 "/></g></g><g style="fill:#0097b2;fill-opacity:1;"><g transform="translate(148.915351, 247.474759)"><path style="stroke:none" d="M 30.578125 -33.3125 L 30.578125 0 L 16.203125 0 L 16.203125 -33.3125 L 1.5 -33.3125 L 1.5 -44.765625 L 45.21875 -44.765625 L 45.21875 -33.3125 Z M 30.578125 -33.3125 "/></g></g><g style="fill:#0097b2;fill-opacity:1;"><g transform="translate(207.918995, 247.474759)"><path style="stroke:none" d="M 47.296875 -31.03125 C 47.296875 -28.300781 46.554688 -25.828125 45.078125 -23.609375 C 43.609375 -21.398438 41.460938 -19.773438 38.640625 -18.734375 L 48.609375 0 L 32.46875 0 L 24.53125 -16.328125 L 19.1875 -16.328125 L 19.1875 0 L 4.8125 0 L 4.8125 -44.765625 L 32.203125 -44.765625 C 35.410156 -44.765625 38.15625 -44.144531 40.4375 -42.90625 C 42.71875 -41.664062 44.429688 -39.992188 45.578125 -37.890625 C 46.722656 -35.796875 47.296875 -33.507812 47.296875 -31.03125 Z M 32.65625 -30.453125 C 32.65625 -31.617188 32.265625 -32.59375 31.484375 -33.375 C 30.703125 -34.15625 29.75 -34.546875 28.625 -34.546875 L 19.1875 -34.546875 L 19.1875 -26.28125 L 28.625 -26.28125 C 29.75 -26.28125 30.703125 -26.679688 31.484375 -27.484375 C 32.265625 -28.285156 32.65625 -29.273438 32.65625 -30.453125 Z M 32.65625 -30.453125 "/></g></g><g style="fill:#0097b2;fill-opacity:1;"><g transform="translate(270.56555, 247.474759)"><path style="stroke:none" d="M 5.46875 0 L 5.46875 -44.765625 L 19.84375 -44.765625 L 19.84375 0 Z M 5.46875 0 "/></g></g><g style="fill:#0097b2;fill-opacity:1;"><g transform="translate(307.907014, 247.474759)"><path style="stroke:none" d="M 50.625 0 L 33.1875 0 L 24.921875 -13.921875 L 24.65625 -13.921875 L 16.390625 0 L 0.265625 0 L 16.265625 -23.6875 L 1.828125 -44.765625 L 19.1875 -44.765625 L 25.953125 -33.3125 L 26.21875 -33.3125 L 33.046875 -44.765625 L 49.125 -44.765625 L 34.609375 -23.625 Z M 50.625 0 "/></g></g><g clip-rule="nonzero" clip-path="url(#736a45fb09)"><g clip-rule="nonzero" clip-path="url(#09bfb13778)"><path style=" stroke:none;fill-rule:nonzero;fill:#ffda3a;fill-opacity:1;" d="M 10.386719 265.34375 L 53.621094 265.34375 L 53.621094 308.578125 L 10.386719 308.578125 Z M 10.386719 265.34375 "/></g></g><g clip-rule="nonzero" clip-path="url(#3f35994eaa)"><g clip-rule="nonzero" clip-path="url(#bf0ec5af6a)"><path style=" stroke:none;fill-rule:nonzero;fill:#ffda3a;fill-opacity:1;" d="M 321.777344 30.9375 L 365.011719 30.9375 L 365.011719 74.171875 L 321.777344 74.171875 Z M 321.777344 30.9375 "/></g></g><g clip-rule="nonzero" clip-path="url(#e7c99b07f9)"><g clip-rule="nonzero" clip-path="url(#b709aeca77)"><path style=" stroke:none;fill-rule:nonzero;fill:#ffda3a;fill-opacity:1;" d="M 217.914062 81.332031 L 261.152344 81.332031 L 261.152344 124.570312 L 217.914062 124.570312 Z M 217.914062 81.332031 "/></g></g><g clip-rule="nonzero" clip-path="url(#363450300d)"><g clip-rule="nonzero" clip-path="url(#3a90532776)"><path style=" stroke:none;fill-rule:nonzero;fill:#ffda3a;fill-opacity:1;" d="M 141.25 300.828125 L 184.484375 300.828125 L 184.484375 344.0625 L 141.25 344.0625 Z M 141.25 300.828125 "/></g></g><g clip-rule="nonzero" clip-path="url(#f70afd32e3)"><g clip-rule="nonzero" clip-path="url(#84281e59f1)"><path style=" stroke:none;fill-rule:nonzero;fill:#ffda3a;fill-opacity:1;" d="M 65.589844 134.175781 L 108.824219 134.175781 L 108.824219 177.414062 L 65.589844 177.414062 Z M 65.589844 134.175781 "/></g></g><g clip-rule="nonzero" clip-path="url(#63d400739e)"><g clip-rule="nonzero" clip-path="url(#e85735e8f1)"><path style=" stroke:none;fill-rule:nonzero;fill:#ffffff;fill-opacity:1;" d="M 231.1875 94.605469 L 247.878906 94.605469 L 247.878906 111.296875 L 231.1875 111.296875 Z M 231.1875 94.605469 "/></g></g><g clip-rule="nonzero" clip-path="url(#cdd364b293)"><g clip-rule="nonzero" clip-path="url(#59500c9b0f)"><path style=" stroke:none;fill-rule:nonzero;fill:#ffffff;fill-opacity:1;" d="M 335.046875 44.207031 L 351.742188 44.207031 L 351.742188 60.902344 L 335.046875 60.902344 Z M 335.046875 44.207031 "/></g></g><g clip-rule="nonzero" clip-path="url(#dbcc531b02)"><g clip-rule="nonzero" clip-path="url(#c29065262b)"><path style=" stroke:none;fill-rule:nonzero;fill:#ffffff;fill-opacity:1;" d="M 78.859375 147.449219 L 95.554688 147.449219 L 95.554688 164.140625 L 78.859375 164.140625 Z M 78.859375 147.449219 "/></g></g><g clip-rule="nonzero" clip-path="url(#c36b9a2eac)"><g clip-rule="nonzero" clip-path="url(#9b87054ede)"><path style=" stroke:none;fill-rule:nonzero;fill:#ffffff;fill-opacity:1;" d="M 23.65625 278.613281 L 40.351562 278.613281 L 40.351562 295.308594 L 23.65625 295.308594 Z M 23.65625 278.613281 "/></g></g><g clip-rule="nonzero" clip-path="url(#209328ec4b)"><g clip-rule="nonzero" clip-path="url(#41915f2872)"><path style=" stroke:none;fill-rule:nonzero;fill:#ffffff;fill-opacity:1;" d="M 154.519531 314.097656 L 171.214844 314.097656 L 171.214844 330.792969 L 154.519531 330.792969 Z M 154.519531 314.097656 "/></g></g></g></svg>