<svg xmlns="http://www.w3.org/2000/svg" version="1.1" viewBox="0 -0.13 257 256.13">
<path d="M0 0 C84.81 0 169.62 0 257 0 C257 84.48 257 168.96 257 256 C172.19 256 87.38 256 0 256 C0 171.52 0 87.04 0 0 Z " fill="#6DA804" transform="translate(0,0)"/>
<path d="M0 0 C3.63 0 7.26 0 11 0 C11 9.9 11 19.8 11 30 C13.64 30 16.28 30 19 30 C19 20.1 19 10.2 19 0 C26.93095055 -0.06327886 34.86096253 -0.12333909 42.79194641 -0.15525055 C46.48689816 -0.17095468 50.18163634 -0.19186268 53.87646484 -0.22631836 C84.87640666 -0.50775638 84.87640666 -0.50775638 98 3 C99.22662354 3.28987793 100.45324707 3.57975586 101.71704102 3.87841797 C121.43941258 8.64817199 138.22536154 20.83812321 149 38 C155.08886588 48.23813336 158.64632009 58.33798147 161 70 C161.18949219 70.76957031 161.37898437 71.53914063 161.57421875 72.33203125 C165.41485572 96.39767389 158.7829226 120.17681167 145.0625 139.9375 C130.82924322 158.39927773 110.91730161 168.65635072 88 172 C80.31820793 172.64319892 72.60316634 172.46955114 64.90234375 172.390625 C62.72946194 172.38314494 60.55657328 172.37746038 58.38368225 172.37347412 C52.72346672 172.35835663 47.06367573 172.31919788 41.40362549 172.2746582 C35.6044285 172.2334024 29.80516148 172.215399 24.00585938 172.1953125 C12.67038857 172.15268744 1.33522988 172.08460881 -10 172 C-10 168.37 -10 164.74 -10 161 C-7.03 161 -4.06 161 -1 161 C-1 153.74 -1 146.48 -1 139 C2.63 139 6.26 139 10 139 C10 146.26 10 153.52 10 161 C11.98 161 13.96 161 16 161 C16 150.44 16 139.88 16 129 C19.63 129 23.26 129 27 129 C27 139.56 27 150.12 27 161 C29.31 161 31.62 161 34 161 C34 150.44 34 139.88 34 129 C43.9 129 53.8 129 64 129 C64 121.41 64 113.82 64 106 C39.91 106 15.82 106 -9 106 C-9 102.7 -9 99.4 -9 96 C-7.35 96 -5.7 96 -4 96 C-4 90.06 -4 84.12 -4 78 C14.15 78 32.3 78 51 78 C51 83.61 51 89.22 51 95 C55.29 95 59.58 95 64 95 C64 77.18 64 59.36 64 41 C39.91 41 15.82 41 -9 41 C-9 37.37 -9 33.74 -9 30 C-6.03 30 -3.06 30 0 30 C0 20.1 0 10.2 0 0 Z " fill="#FCFDFC" transform="translate(53,42)"/>
<path d="M0 0 C83.82 0 167.64 0 254 0 C252.91768873 5.41155635 251.19542644 7.39273797 247.47387695 11.09130859 C246.89815445 11.67885925 246.32243195 12.26640991 245.72926331 12.87176514 C243.82598734 14.80789982 241.90812906 16.72874338 239.98828125 18.6484375 C238.65849846 19.98853377 237.32909179 21.32900335 236.00004578 22.66983032 C233.21343573 25.47586962 230.41894836 28.27378148 227.61938477 31.06689453 C224.03036688 34.6499068 220.46714628 38.25742645 216.91006184 41.87210655 C214.17260078 44.6465003 211.41931702 47.40475806 208.66124535 50.15864944 C207.34036109 51.48241034 206.02508845 52.8117951 204.71557045 54.14680099 C202.88427049 56.00997462 201.03217857 57.84966372 199.1730957 59.68505859 C198.36624329 60.52023514 198.36624329 60.52023514 197.54309082 61.37228394 C194.8801524 63.95505457 193.57492649 65.00137526 189.79777527 64.99234009 C186.59942228 63.85791949 184.75744195 62.07009486 182.27734375 59.8125 C174.70384227 53.78487618 165.59419362 49.86046915 156.375 47.125 C155.73191895 46.93413818 155.08883789 46.74327637 154.42626953 46.54663086 C143.08172336 43.43639317 131.66165588 42.6891395 119.94921875 42.5859375 C118.55531238 42.56716839 117.16141669 42.54759102 115.76753235 42.5272522 C112.14607114 42.47652997 108.52457332 42.43658916 104.9029541 42.39910889 C101.18847078 42.35868735 97.47412951 42.30787093 93.75976562 42.2578125 C86.50656834 42.1608068 79.25346773 42.08080674 72 42 C72 51.9 72 61.8 72 72 C69.36 72 66.72 72 64 72 C64 62.1 64 52.2 64 42 C60.37 42 56.74 42 53 42 C53 51.9 53 61.8 53 72 C50.03 72 47.06 72 44 72 C44 75.63 44 79.26 44 83 C68.09 83 92.18 83 117 83 C117 100.82 117 118.64 117 137 C116.67 137 116.34 137 116 137 C116 119.51 116 102.02 116 84 C92.9 84 69.8 84 46 84 C45.505 89.94 45.505 89.94 45 96 C43.75277452 103.44964406 41.53357865 110.59879487 39.19506836 117.76782227 C36.30923923 126.84348425 34.08536534 136.11576867 31.7668457 145.34912109 C31.51511597 146.34421944 31.51511597 146.34421944 31.25830078 147.35942078 C30.79663788 149.18573626 30.33922589 151.01312478 29.88208008 152.84057617 C29.09083952 155.67463208 28.09162844 158.27361897 27 161 C26.42636131 163.09010972 25.88872971 165.19029008 25.37890625 167.296875 C25.08306641 168.5034375 24.78722656 169.71 24.48242188 170.953125 C23.872933 173.46872241 23.26355657 175.98434707 22.65429688 178.5 C21.19734871 184.44156733 19.67789213 190.28549935 17.66796875 196.06469727 C15.71938593 201.71031714 14.38638727 207.49842294 13.0625 213.3125 C11.82880441 218.64201947 10.50207219 223.88924838 8.859375 229.109375 C6.707291 236.34820299 4.8984504 243.69134116 3 251 C2.34 251 1.68 251 1 251 C1 252.65 1 254.3 1 256 C0.67 256 0.34 256 0 256 C0 171.52 0 87.04 0 0 Z " fill="#8BC327" transform="translate(0,0)"/>
<path d="M0 0 C1.06369604 0.00436926 1.06369604 0.00436926 2.1488809 0.00882679 C2.89702541 0.00797237 3.64516991 0.00711794 4.41598547 0.00623763 C6.94187816 0.00458058 9.46770555 0.01010783 11.9935922 0.01555592 C13.79667243 0.01583777 15.59975277 0.0156801 17.40283293 0.01511341 C22.31378408 0.01482535 27.22471103 0.02072347 32.13565654 0.02768737 C37.2619608 0.03391947 42.38826557 0.03452459 47.51457304 0.03571278 C57.22914494 0.03882652 66.94370566 0.04704048 76.65827262 0.05706227 C87.71491586 0.06822208 98.77155962 0.07373352 109.82820708 0.0787577 C132.57922383 0.08922306 155.33023063 0.10682333 178.08123869 0.12908131 C177.30984752 5.20318227 175.10989076 7.68756389 171.55511564 11.2203899 C170.97939314 11.80794056 170.40367063 12.39549122 169.81050199 13.00084645 C167.90722603 14.93698113 165.98936775 16.85782468 164.06951994 18.77751881 C162.73973715 20.11761507 161.41033048 21.45808466 160.08128446 22.79891163 C157.29467442 25.60495093 154.50018705 28.40286279 151.70062345 31.19597584 C148.11160557 34.77898811 144.54838497 38.38650776 140.99130052 42.00118786 C138.25383947 44.7755816 135.5005557 47.53383937 132.74248403 50.28773075 C131.42159977 51.61149165 130.10632714 52.94087641 128.79680914 54.2758823 C126.96550918 56.13905593 125.11341725 57.97874503 123.25433439 59.8141399 C122.44748197 60.64931645 122.44748197 60.64931645 121.62432951 61.50136524 C118.96139108 64.08413588 117.65616518 65.13045657 113.87901396 65.1214214 C110.68066097 63.9870008 108.83868064 62.19917617 106.35858244 59.94158131 C98.78508096 53.91395749 89.67543231 49.98955046 80.45623869 47.25408131 C79.81315763 47.06321949 79.17007658 46.87235768 78.50750822 46.67571217 C67.16296204 43.56547448 55.74289457 42.81822081 44.03045744 42.71501881 C42.63655107 42.6962497 41.24265538 42.67667233 39.84877104 42.65633351 C36.22730983 42.60561128 32.60581201 42.56567047 28.98419279 42.5281902 C25.26970947 42.48776866 21.55536819 42.43695224 17.84100431 42.38689381 C10.58780702 42.28988811 3.33470642 42.20988804 -3.91876131 42.12908131 C-3.91876131 52.02908131 -3.91876131 61.92908131 -3.91876131 72.12908131 C-6.55876131 72.12908131 -9.19876131 72.12908131 -11.91876131 72.12908131 C-11.91876131 62.22908131 -11.91876131 52.32908131 -11.91876131 42.12908131 C-13.89876131 42.12908131 -15.87876131 42.12908131 -17.91876131 42.12908131 C-15.39768852 31.24019242 -15.39768852 31.24019242 -13.35626131 26.50408131 C-11.78405037 22.81280344 -11.10048821 19.34228324 -10.38360506 15.41423756 C-9.85600531 12.8205749 -8.96776163 10.55489454 -7.91876131 8.12908131 C-7.56813631 6.89158131 -7.21751131 5.65408131 -6.85626131 4.37908131 C-5.47404334 -0.41260767 -4.76171098 0.01482643 0 0 Z " fill="#7EBB13" transform="translate(75.91876131296158,-0.12908130884170532)"/>
<path d="M0 0 C3.63 0 7.26 0 11 0 C11 9.9 11 19.8 11 30 C13.64 30 16.28 30 19 30 C19 20.43 19 10.86 19 1 C37.15 1 55.3 1 74 1 C74 57.1 74 113.2 74 171 C46.61 171 19.22 171 -9 171 C-9 167.7 -9 164.4 -9 161 C-6.36 161 -3.72 161 -1 161 C-1 153.74 -1 146.48 -1 139 C2.63 139 6.26 139 10 139 C10 146.26 10 153.52 10 161 C11.98 161 13.96 161 16 161 C16 150.44 16 139.88 16 129 C19.63 129 23.26 129 27 129 C27 139.56 27 150.12 27 161 C29.31 161 31.62 161 34 161 C34 150.44 34 139.88 34 129 C43.9 129 53.8 129 64 129 C64 121.41 64 113.82 64 106 C39.91 106 15.82 106 -9 106 C-9 102.7 -9 99.4 -9 96 C-7.35 96 -5.7 96 -4 96 C-4 90.06 -4 84.12 -4 78 C14.15 78 32.3 78 51 78 C51 83.61 51 89.22 51 95 C55.29 95 59.58 95 64 95 C64 77.18 64 59.36 64 41 C39.91 41 15.82 41 -9 41 C-9 37.37 -9 33.74 -9 30 C-6.03 30 -3.06 30 0 30 C0 20.1 0 10.2 0 0 Z " fill="#FDFDFC" transform="translate(53,42)"/>
<path d="M0 0 C3.97243168 1.32414389 6.13488574 2.9879568 9 6 C7.27164846 8.52139551 5.54234179 11.04212718 3.8125 13.5625 C3.32974609 14.26697266 2.84699219 14.97144531 2.34960938 15.69726562 C1.86943359 16.39658203 1.38925781 17.09589844 0.89453125 17.81640625 C0.41604736 18.51499756 -0.06243652 19.21358887 -0.55541992 19.93334961 C-1.95643212 21.93767077 -3.41219405 23.89215822 -4.875 25.8515625 C-7.30493006 28.75772226 -7.30493006 28.75772226 -6.8125 31.8125 C-6.544375 32.864375 -6.27625 33.91625 -6 35 C-5.52749868 39.97755702 -5.43009129 43.81634345 -7.625 48.375 C-10.89298766 51.98698636 -13.48866265 54.68657256 -18.50390625 55.3125 C-25.29404008 55.47063994 -25.29404008 55.47063994 -29 53 C-29.37231445 50.50976562 -29.37231445 50.50976562 -29.36328125 47.40625 C-29.36263672 46.29378906 -29.36199219 45.18132812 -29.36132812 44.03515625 C-29.34521484 42.86855469 -29.32910156 41.70195312 -29.3125 40.5 C-29.31572266 39.33339844 -29.31894531 38.16679688 -29.32226562 36.96484375 C-29.26683218 28.26683218 -29.26683218 28.26683218 -27 26 C-25.4249875 25.91921188 -23.84654029 25.89877937 -22.26953125 25.9140625 C-19.12496564 25.65291037 -17.52144953 25.46196079 -15.13818359 23.35058594 C-13.48925271 21.0946961 -12.06984272 18.80318155 -10.6875 16.375 C-9.71307599 14.77813515 -8.73782574 13.18177416 -7.76171875 11.5859375 C-7.30458496 10.81475586 -6.84745117 10.04357422 -6.37646484 9.24902344 C-4.41192514 6.039137 -2.22998399 3.03017862 0 0 Z " fill="#598807" transform="translate(156,88)"/>
<path d="M0 0 C12.62787455 1.57848432 22.57390172 12.03855143 30.63671875 21.0546875 C32 23 32 23 32 26 C29.6640625 27.82421875 29.6640625 27.82421875 26.625 29.6875 C25.62726563 30.31011719 24.62953125 30.93273437 23.6015625 31.57421875 C21 33 21 33 19 33 C17.51953125 31.4609375 17.51953125 31.4609375 15.8125 29.375 C9.99502777 22.57395515 3.96224375 18.08042424 -4 14 C-3.38139249 10.61867932 -2.55327538 7.43780218 -1.4375 4.1875 C-1.16808594 3.39730469 -0.89867187 2.60710938 -0.62109375 1.79296875 C-0.41613281 1.20128906 -0.21117187 0.60960937 0 0 Z " fill="#608E0F" transform="translate(160,59)"/>
<path d="M0 0 C0.79780561 1.99755909 1.58792425 3.99818885 2.375 6 C2.81585938 7.11375 3.25671875 8.2275 3.7109375 9.375 C6.28141912 16.6035059 7.28755184 22.82255171 7.125 30.5 C7.11597656 31.32242188 7.10695312 32.14484375 7.09765625 32.9921875 C7.07436865 34.99492083 7.03850959 36.99750154 7 39 C0.07 38.505 0.07 38.505 -7 38 C-7.061875 35.999375 -7.12375 33.99875 -7.1875 31.9375 C-7.66300049 24.75378489 -9.49659576 18.78936753 -12.0390625 12.08203125 C-13 9 -13 9 -12 6 C-9.78515625 4.39453125 -9.78515625 4.39453125 -7.0625 2.8125 C-6.16660156 2.28269531 -5.27070313 1.75289063 -4.34765625 1.20703125 C-2 0 -2 0 0 0 Z " fill="#588509" transform="translate(198,93)"/>
<path d="M0 0 C1.77074917 -0.02705729 3.54161711 -0.04642195 5.3125 -0.0625 C6.29863281 -0.07410156 7.28476563 -0.08570313 8.30078125 -0.09765625 C11 0 11 0 14 1 C11.97316704 14.51221973 6.7159749 25.81442565 -1 37 C-4.82964655 35.43977363 -7.32190489 33.12444429 -10 30 C-10 25.37406311 -8.87658648 23.52465588 -6.6875 19.5 C-3.36063214 13.1935609 -1.35145381 7.0275598 0 0 Z " fill="#548106" transform="translate(190,141)"/>
<path d="M0 0 C2.97 0 5.94 0 9 0 C9 7.26 9 14.52 9 22 C-0.57 22 -10.14 22 -20 22 C-13.26037736 14.13710692 -13.26037736 14.13710692 -10.60546875 11.54296875 C-9.76145508 10.71055664 -9.76145508 10.71055664 -8.90039062 9.86132812 C-8.33513672 9.30896484 -7.76988281 8.75660156 -7.1875 8.1875 C-3.11000683 4.46575072 -3.11000683 4.46575072 0 0 Z " fill="#5E9204" transform="translate(107,149)"/>
<path d="M0 0 C3.93673644 1.31224548 6.22719294 2.91910327 9 6 C7.10559362 7.93961978 5.21505955 9.64792107 3.11328125 11.3828125 C-0.47058105 14.43046191 -3.77540964 17.71370897 -7.08203125 21.0546875 C-7.62600555 21.60417053 -8.16997986 22.15365356 -8.73043823 22.7197876 C-11.00837124 25.02550484 -13.28254387 27.3348567 -15.55249023 29.6484375 C-17.22469539 31.35066811 -18.90292381 33.04676916 -20.58203125 34.7421875 C-21.35387505 35.53422073 -21.35387505 35.53422073 -22.14131165 36.34225464 C-23.39007486 37.59984894 -24.6907857 38.80546624 -26 40 C-26.66 40 -27.32 40 -28 40 C-28 44.29 -28 48.58 -28 53 C-28.33 53 -28.66 53 -29 53 C-29.05784708 48.87505849 -29.09354407 44.75022056 -29.125 40.625 C-29.14175781 39.449375 -29.15851563 38.27375 -29.17578125 37.0625 C-29.18222656 35.94101563 -29.18867187 34.81953125 -29.1953125 33.6640625 C-29.20578613 32.62717285 -29.21625977 31.5902832 -29.22705078 30.52197266 C-29 28 -29 28 -27 26 C-25.4249875 25.91921188 -23.84654029 25.89877937 -22.26953125 25.9140625 C-19.12496564 25.65291037 -17.52144953 25.46196079 -15.13818359 23.35058594 C-13.48925271 21.0946961 -12.06984272 18.80318155 -10.6875 16.375 C-9.71307599 14.77813515 -8.73782574 13.18177416 -7.76171875 11.5859375 C-7.30458496 10.81475586 -6.84745117 10.04357422 -6.37646484 9.24902344 C-4.41192514 6.039137 -2.22998399 3.03017862 0 0 Z " fill="#5E8913" transform="translate(156,88)"/>
<path d="M0 0 C2.68777802 -0.0544207 5.37443212 -0.09387266 8.0625 -0.125 C8.81466797 -0.14175781 9.56683594 -0.15851562 10.34179688 -0.17578125 C15.29327709 -0.21865121 19.30414451 0.41600625 24 2 C23.71390693 3.39698636 23.42083095 4.7925433 23.125 6.1875 C22.96257812 6.96480469 22.80015625 7.74210937 22.6328125 8.54296875 C21.9638008 11.1405512 21.04347512 13.53161138 20 16 C18.72382813 15.9278125 17.44765625 15.855625 16.1328125 15.78125 C14.46354331 15.68747083 12.79427238 15.59372243 11.125 15.5 C10.28324219 15.45230469 9.44148437 15.40460938 8.57421875 15.35546875 C7.76855469 15.31035156 6.96289062 15.26523438 6.1328125 15.21875 C5.38918457 15.17685547 4.64555664 15.13496094 3.87939453 15.09179688 C2.58744125 15.0286929 1.29349349 15 0 15 C0 10.05 0 5.1 0 0 Z " fill="#608D0F" transform="translate(127,53)"/>
<path d="M0 0 C10.23 0 20.46 0 31 0 C31 3.3 31 6.6 31 10 C20.77 10 10.54 10 0 10 C0 6.7 0 3.4 0 0 Z " fill="#527E05" transform="translate(127,173)"/>
<path d="M0 0 C1.98 0 3.96 0 6 0 C6 9.9 6 19.8 6 30 C8.64 30 11.28 30 14 30 C14 30.33 14 30.66 14 31 C-18.34 31 -50.68 31 -84 31 C-84 27.37 -84 23.74 -84 20 C-83.67 20 -83.34 20 -83 20 C-83 23.3 -83 26.6 -83 30 C-55.61 30 -28.22 30 0 30 C0 20.1 0 10.2 0 0 Z " fill="#BAC5A6" transform="translate(127,183)"/>
<path d="M0 0 C0 0.33 0 0.66 0 1 C-1.65 1 -3.3 1 -5 1 C-5 15.85 -5 30.7 -5 46 C-2.69 46 -0.38 46 2 46 C2 46.33 2 46.66 2 47 C1.30132812 47.06058594 0.60265625 47.12117188 -0.1171875 47.18359375 C-1.02726563 47.26738281 -1.93734375 47.35117188 -2.875 47.4375 C-3.77992188 47.51871094 -4.68484375 47.59992188 -5.6171875 47.68359375 C-8.01110861 47.86989285 -8.01110861 47.86989285 -10 49 C-10 33.16 -10 17.32 -10 1 C-6.78548731 -0.60725635 -3.56387464 -0.05748185 0 0 Z " fill="#BDBFBB" transform="translate(137,67)"/>
<path d="M0 0 C4.31279406 1.92601273 6.22069481 4.21705682 9 8 C9 8.99 9 9.98 9 11 C6.6640625 12.82421875 6.6640625 12.82421875 3.625 14.6875 C2.62726563 15.31011719 1.62953125 15.93273437 0.6015625 16.57421875 C-2 18 -2 18 -4 18 C-6.6875 15.25 -6.6875 15.25 -9 12 C-8.79820289 8.15033212 -6.62919539 6.31351942 -3.9375 3.75 C-3.20402344 3.04359375 -2.47054687 2.3371875 -1.71484375 1.609375 C-1.14894531 1.07828125 -0.58304688 0.5471875 0 0 Z " fill="#5A870B" transform="translate(183,74)"/>
<path d="M0 0 C0 10.23 0 20.46 0 31 C-1.98 31 -3.96 31 -6 31 C-6.12368591 27.06754915 -6.21437336 23.13585202 -6.2746582 19.2019043 C-6.31214374 17.20646445 -6.37567535 15.21156948 -6.43945312 13.21679688 C-6.45556641 11.96318359 -6.47167969 10.70957031 -6.48828125 9.41796875 C-6.51446533 8.26063232 -6.54064941 7.1032959 -6.56762695 5.91088867 C-6 3 -6 3 -3.53198242 1.09887695 C-1 0 -1 0 0 0 Z " fill="#527F04" transform="translate(86,172)"/>
<path d="M0 0 C2.475 0.99 2.475 0.99 5 2 C5.33 11.9 5.66 21.8 6 32 C4.02 32 2.04 32 0 32 C0 21.44 0 10.88 0 0 Z " fill="#C0C0C0" transform="translate(127,141)"/>
<path d="M0 0 C1.32 0 2.64 0 4 0 C4 14.85 4 29.7 4 45 C2.68 45 1.36 45 0 45 C0 30.15 0 15.3 0 0 Z " fill="#E1E1E1" transform="translate(132,68)"/>
<path d="M0 0 C20.79 0 41.58 0 63 0 C63 3.63 63 7.26 63 11 C60.36 11 57.72 11 55 11 C55 7.7 55 4.4 55 1 C36.85 1 18.7 1 0 1 C0 0.67 0 0.34 0 0 Z " fill="#D0DCBC" transform="translate(72,42)"/>
<path d="M0 0 C1.65 0 3.3 0 5 0 C4.67 0.99 4.34 1.98 4 3 C3.85013589 4.9906444 3.75171962 6.98535391 3.68359375 8.98046875 C3.64169922 10.14384766 3.59980469 11.30722656 3.55664062 12.50585938 C3.51732422 13.72080078 3.47800781 14.93574219 3.4375 16.1875 C3.39431641 17.41404297 3.35113281 18.64058594 3.30664062 19.90429688 C3.20046986 22.93606192 3.09972236 25.968016 3 29 C10.59 29 18.18 29 26 29 C26 29.33 26 29.66 26 30 C21.85418113 30.02886751 17.70838784 30.04675327 13.5625 30.0625 C11.78649414 30.07506836 11.78649414 30.07506836 9.97460938 30.08789062 C8.84990234 30.09111328 7.72519531 30.09433594 6.56640625 30.09765625 C5.00321655 30.10551147 5.00321655 30.10551147 3.40844727 30.11352539 C1 30 1 30 0 29 C-0.08775605 26.85441173 -0.10695219 24.70595579 -0.09765625 22.55859375 C-0.09443359 21.25341797 -0.09121094 19.94824219 -0.08789062 18.60351562 C-0.07953401 17.2148431 -0.07106905 15.82617123 -0.0625 14.4375 C-0.05748666 13.04492344 -0.05292347 11.65234519 -0.04882812 10.25976562 C-0.03699434 6.8398013 -0.0205088 3.41992156 0 0 Z " fill="#E2E4E0" transform="translate(132,143)"/>
<path d="M0 0 C0.66 0 1.32 0 2 0 C2 9.9 2 19.8 2 30 C0.68 29.67 -0.64 29.34 -2 29 C-1.88201056 25.03047101 -1.75778201 21.06119219 -1.62768555 17.09204102 C-1.58428777 15.74085853 -1.5426163 14.38961947 -1.50268555 13.03833008 C-1.44510048 11.09963299 -1.38085702 9.16113724 -1.31640625 7.22265625 C-1.27974854 6.05484619 -1.24309082 4.88703613 -1.20532227 3.68383789 C-1 1 -1 1 0 0 Z " fill="#CECECE" transform="translate(131,183)"/>
<path d="M0 0 C8.25 0 16.5 0 25 0 C25 0.33 25 0.66 25 1 C14.11 1.495 14.11 1.495 3 2 C2.67 10.58 2.34 19.16 2 28 C1.34 28.33 0.68 28.66 0 29 C0 19.43 0 9.86 0 0 Z " fill="#E8E9E6" transform="translate(133,183)"/>
<path d="M0 0 C0 4.62 0 9.24 0 14 C-1.65 14 -3.3 14 -5 14 C-5.10815225 12.23050905 -5.18566083 10.45912513 -5.25 8.6875 C-5.29640625 7.70136719 -5.3428125 6.71523437 -5.390625 5.69921875 C-5 3 -5 3 -3.046875 1.14453125 C-1 0 -1 0 0 0 Z " fill="#537F06" transform="translate(69,189)"/>
<path d="M0 0 C0.99 0.33 1.98 0.66 3 1 C3.33 3.31 3.66 5.62 4 8 C2.68 8 1.36 8 0 8 C0 5.36 0 2.72 0 0 Z " fill="#C1C1C1" transform="translate(128,45)"/>
<path d="M0 0 C0.33 0 0.66 0 1 0 C1 2.97 1 5.94 1 9 C0.01 9 -0.98 9 -2 9 C-1.34 6.03 -0.68 3.06 0 0 Z " fill="#739E29" transform="translate(52,63)"/>
</svg>