<svg xml:space="preserve" viewBox="107.662781 94.70588935281836 509.4111449999999 159.0480584551148" y="0px" x="0px" id="Layer_1" version="1.1" xmlns="http://www.w3.org/2000/svg" style="max-height: 500px" width="509.4111449999999" height="159.0480584551148"><metadata id="metadata46">image/svg+xml</metadata><defs id="defs44"/><polygon id="polygon3" points="195,180 216.513,180 198.306,162 176,162 176,183.433 195,202.37" fill="#EE7913"/><linearGradient y2="100.4837" x2="347.782" y1="247.7832" x1="350.0225" gradientUnits="userSpaceOnUse" id="SVGID_1_"><stop id="stop6" style="stop-color:#589632" offset="0"/><stop id="stop8" style="stop-color:#93B023" offset="1"/></linearGradient><path id="path10" d="M414.246,171.135v54.35c-14.951,10.911-37.782,18.386-57.38,18.386  c-42.833,0-75.362-31.113-75.362-72.129c0-40.813,33.135-71.725,77.182-71.725c21.013,0,42.427,8.082,56.773,20.608l-17.982,22.832  c-10.507-9.698-25.052-15.76-38.791-15.76c-25.055,0-44.451,19.194-44.451,44.045c0,25.053,19.599,44.249,44.651,44.249  c8.486,0,18.589-3.031,27.681-7.678v-37.177H414.246z" fill="url(#SVGID_1_)"/><linearGradient y2="98.8224" x2="456.9813" y1="246.1226" x1="459.2217" gradientUnits="userSpaceOnUse" id="SVGID_2_"><stop id="stop13" style="stop-color:#589632" offset="0"/><stop id="stop15" style="stop-color:#93B023" offset="1"/></linearGradient><path id="path17" d="M442.129,242.456v-141.43h31.922v141.43H442.129z" fill="url(#SVGID_2_)"/><linearGradient y2="97.3882" x2="551.2664" y1="244.6875" x1="553.5068" gradientUnits="userSpaceOnUse" id="SVGID_3_"><stop id="stop20" style="stop-color:#589632" offset="0"/><stop id="stop22" style="stop-color:#93B023" offset="1"/></linearGradient><path id="path24" d="M610.831,114.967l-12.324,26.467c-14.951-8.89-32.731-14.547-44.045-14.547  c-10.708,0-17.981,3.839-17.981,11.517c0,26.064,75.362,11.517,75.16,62.431c0,27.68-24.045,42.631-55.36,42.631  c-23.236,0-46.471-8.89-62.431-22.427l12.728-26.063c14.548,12.932,35.155,21.215,50.106,21.215  c13.134,0,21.013-4.849,21.013-13.537c0-26.669-75.362-11.112-75.362-61.219c0-25.659,22.023-41.823,54.755-41.823  C576.89,99.611,596.689,105.673,610.831,114.967z" fill="url(#SVGID_3_)"/><linearGradient y2="101.4977" x2="232.211" y1="250.0342" x1="234.4702" gradientUnits="userSpaceOnUse" id="SVGID_4_"><stop id="stop27" style="stop-color:#589632" offset="0"/><stop id="stop29" style="stop-color:#93B023" offset="1"/></linearGradient><polygon id="polygon31" points="264,226.946 225.617,189 204,189 204,211.34 240.782,248 264,248" fill="url(#SVGID_4_)"/><polygon id="polygon33" points="204,189 225.617,189 216.513,180 195,180 195,202.37 204,211.34" fill="#F0E64A"/><linearGradient y2="102.9362" x2="186.5125" y1="250.2354" x1="188.7529" gradientUnits="userSpaceOnUse" id="SVGID_5_"><stop id="stop36" style="stop-color:#589632" offset="0"/><stop id="stop38" style="stop-color:#93B023" offset="1"/></linearGradient><path id="path40" d="M198.052,216.864c-3.259,0.75-6.648,1.157-10.144,1.157c-25.005,0-46.271-20.562-46.271-47.222  s21.032-46.769,46.271-46.769c25.239,0,45.336,20.108,45.336,46.769c0,4.336-0.54,8.508-1.539,12.46l23.144,23.14  c5.967-10.455,9.305-22.611,9.305-35.778c0-41.09-32.791-71.856-76.714-71.856c-43.722,0-76.512,30.564-76.512,71.856  c0,41.494,32.791,72.666,76.512,72.666c11.287,0,21.835-2.076,31.284-5.854L198.052,216.864z" fill="url(#SVGID_5_)"/><path style="fill:#ffffff;fill-opacity:0.17254902" id="polygon4174" d="m 176,162 88,86 0,-21.05469 L 225.61719,189 l -9.10352,-9 -18.20703,-18 z"/></svg>