<?xml version="1.0" encoding="UTF-8" standalone="no"?>
<!-- Created with Inkscape (http://www.inkscape.org/) -->

<svg
   xmlns:dc="http://purl.org/dc/elements/1.1/"
   xmlns:cc="http://creativecommons.org/ns#"
   xmlns:rdf="http://www.w3.org/1999/02/22-rdf-syntax-ns#"
   xmlns:svg="http://www.w3.org/2000/svg"
   xmlns="http://www.w3.org/2000/svg"
   xmlns:sodipodi="http://sodipodi.sourceforge.net/DTD/sodipodi-0.dtd"
   xmlns:inkscape="http://www.inkscape.org/namespaces/inkscape"
   width="499.09775"
   height="196.2924"
   id="svg2"
   version="1.1"
   inkscape:version="0.48.0 r9654"
   sodipodi:docname="New document 1">
  <defs
     id="defs4" />
  <sodipodi:namedview
     id="base"
     pagecolor="#ffffff"
     bordercolor="#666666"
     borderopacity="1.0"
     inkscape:pageopacity="0.0"
     inkscape:pageshadow="2"
     inkscape:zoom="0.7"
     inkscape:cx="-59.975505"
     inkscape:cy="328.41983"
     inkscape:document-units="px"
     inkscape:current-layer="layer1"
     showgrid="false"
     fit-margin-top="5"
     fit-margin-left="5"
     fit-margin-right="5"
     fit-margin-bottom="5"
     inkscape:window-width="1287"
     inkscape:window-height="983"
     inkscape:window-x="0"
     inkscape:window-y="0"
     inkscape:window-maximized="0" />
  <metadata
     id="metadata7">
    <rdf:RDF>
      <cc:Work
         rdf:about="">
        <dc:format>image/svg+xml</dc:format>
        <dc:type
           rdf:resource="http://purl.org/dc/dcmitype/StillImage" />
        <dc:title></dc:title>
      </cc:Work>
    </rdf:RDF>
  </metadata>
  <g
     inkscape:label="Layer 1"
     inkscape:groupmode="layer"
     id="layer1"
     transform="translate(-182.11837,-664.48961)">
    <g
       id="g3840"
       transform="matrix(2.9204055,0,0,2.9204055,-359.59829,-1285.8864)">
      <g
         id="text3050"
         style="font-size:80.14202881px;font-style:normal;font-variant:normal;font-weight:normal;font-stretch:normal;text-align:start;line-height:100%;writing-mode:lr-tb;text-anchor:start;opacity:0.55172412;fill:#cb7979;fill-opacity:1;stroke:#5a1717;stroke-width:0;stroke-miterlimit:0;stroke-opacity:1;stroke-dashoffset:0;font-family:Andale Mono;-inkscape-font-specification:Andale Mono"
         transform="scale(1.1174377,0.89490447)">
        <path
           id="path3834"
           style="fill:#cb7979"
           d="m 224.10571,764.18968 -18.00065,55.21504 -7.70897,0 -18.03978,-55.21504 6.73067,0 15.14403,47.77999 15.22229,-47.77999 6.65241,0"
           inkscape:connector-curvature="0" />
        <path
           id="path3836"
           style="fill:#cb7979"
           d="m 268.16818,819.40472 -6.18283,0 0,-47.34953 -8.33509,22.65734 -6.06543,0 -8.33509,-22.65734 0,47.34953 -6.18283,0 0,-55.21504 8.33508,0 9.23512,25.16178 9.19598,-25.16178 8.33509,0 0,55.21504"
           inkscape:connector-curvature="0" />
        <path
           id="path3838"
           style="fill:#cb7979"
           d="m 282.5687,764.18968 10.87866,0 c 7.22632,6e-5 13.01783,2.46536 17.37454,7.39592 4.35664,4.90457 6.53497,11.64829 6.53502,20.23117 -5e-5,8.76555 -2.21752,15.56144 -6.65242,20.38769 -4.40889,4.80018 -10.06995,7.20026 -16.98322,7.20026 l -11.15258,0 0,-55.21504 m 6.41762,49.61919 4.5393,0 c 5.24364,1e-5 9.39161,-1.94354 12.44393,-5.83065 3.05225,-3.88708 4.57839,-9.27422 4.57842,-16.16145 -3e-5,-6.835 -1.53922,-12.2091 -4.61755,-16.12232 -3.05232,-3.93923 -7.18725,-5.90886 -12.4048,-5.90891 l -4.5393,0 0,44.02333"
           inkscape:connector-curvature="0" />
      </g>
      <g
         id="text3822"
         style="font-size:80.14202881px;font-style:normal;font-variant:normal;font-weight:normal;font-stretch:normal;text-align:start;line-height:100%;writing-mode:lr-tb;text-anchor:start;opacity:0.79310345;fill:#1f0d0d;fill-opacity:1;stroke:#5a1717;stroke-width:0;stroke-miterlimit:0;stroke-opacity:1;stroke-dashoffset:0;font-family:Andale Mono;-inkscape-font-specification:Andale Mono"
         transform="scale(1.1174377,0.89490447)">
        <path
           id="path3827"
           style="fill:#1f0d0d"
           d="m 211.32137,748.2263 -18.00065,55.21505 -7.70898,0 -18.03978,-55.21505 6.73068,0 15.14402,47.77999 15.22229,-47.77999 6.65242,0"
           inkscape:connector-curvature="0" />
        <path
           id="path3829"
           style="fill:#1f0d0d"
           d="m 255.38383,803.44135 -6.18283,0 0,-47.34954 -8.33508,22.65734 -6.06544,0 -8.33509,-22.65734 0,47.34954 -6.18283,0 0,-55.21505 8.33509,0 9.23511,25.16178 9.19599,-25.16178 8.33508,0 0,55.21505"
           inkscape:connector-curvature="0" />
        <path
           id="path3831"
           style="fill:#1f0d0d"
           d="m 269.78435,748.2263 10.87866,0 c 7.22632,6e-5 13.01783,2.46536 17.37454,7.39592 4.35664,4.90457 6.53498,11.64829 6.53502,20.23117 -4e-5,8.76555 -2.21751,15.56145 -6.65242,20.38769 -4.40888,4.80018 -10.06995,7.20027 -16.98322,7.20027 l -11.15258,0 0,-55.21505 m 6.41763,49.61919 4.53929,0 c 5.24364,10e-6 9.39162,-1.94354 12.44393,-5.83064 3.05225,-3.88709 4.57839,-9.27423 4.57843,-16.16146 -4e-5,-6.83499 -1.53922,-12.2091 -4.61756,-16.12232 -3.05231,-3.93923 -7.18724,-5.90886 -12.4048,-5.90891 l -4.53929,0 0,44.02333"
           inkscape:connector-curvature="0" />
      </g>
    </g>
  </g>
</svg>
